<svg xmlns="http://www.w3.org/2000/svg" xmlns:xlink="http://www.w3.org/1999/xlink" width="124" height="29" viewBox="0 0 124 29"><defs><path id="jblta" d="M254.35 55.03a4.9 4.9 0 0 1-4.87 4.9h-2.94v4.87h-2.43V50.13h5.37a4.9 4.9 0 0 1 4.87 4.9m-2.43 0c0-1.36-1.1-2.46-2.44-2.46h-2.94v4.91h2.94c1.34 0 2.44-1.1 2.44-2.45"/><path id="jbltb" d="M269.17 64.8h-2.99l-3.5-4.88h-1.8v4.88h-2.44V50.13h4.63a4.9 4.9 0 0 1 2.22 9.24zm-3.67-9.77c0-1.36-1.1-2.46-2.43-2.46h-2.2v4.91h2.2c1.34 0 2.43-1.1 2.43-2.45z"/><path id="jbltc" d="M277.65 49.88c3.29 0 5.13 3.43 5.13 7.6 0 4.15-1.84 7.56-5.13 7.56s-5.11-3.4-5.11-7.57c0-4.16 1.82-7.59 5.1-7.59m0 12.72c1.65 0 2.55-2.34 2.55-5.13 0-2.82-.9-5.15-2.54-5.15-1.62 0-2.52 2.33-2.52 5.15 0 2.8.9 5.13 2.52 5.13"/><path id="jbltd" d="M296.98 64.8v-8.85l-3.53 6.64h-.48l-3.54-6.64v8.85h-2.32V50.12h2l4.1 7.72 4.1-7.72h2V64.8z"/><path id="jblte" d="M306.32 52.57h-2.44v-2.44h7.3v2.44h-2.43v9.8h2.43v2.43h-7.3v-2.44h2.44z"/><path id="jbltf" d="M319.13 65.04c-1.58 0-2.76-.5-4.12-1.56l.28-2.18c1.47.8 2.68 1.3 3.93 1.3 1.1 0 2.5-.6 2.5-1.78 0-2.8-6.91-1.72-6.91-6.63 0-2.55 2.24-4.31 4.83-4.31 1.64 0 2.76.57 4.28 1.76l-.77 1.94a6.67 6.67 0 0 0-3.43-1.28c-1.47 0-2.36.8-2.36 1.67 0 2.62 6.93 1.96 6.93 6.47 0 3.02-2.52 4.6-5.16 4.6"/><path id="jbltg" d="M226.97 51.54c0 .48-.38.87-.85.87a.86.86 0 0 1-.85-.87c0-.47.38-.86.85-.86s.85.39.85.86m3.5 1.25c-.97-.58-1.37-.9-2.5-1.84-1.45-1.22-2.98-1.13-6.65.69 0 0-2.72-4-3.67-5.45a4.53 4.53 0 0 0-2.86-2c-1.16-.23-6.53-.46-13.79.66 15.68 3.72 14.44 9.12 11.97 10.27l-9.65 4.47 2.24 4.8 10.52-4.83c4.01-1.83 6.53 4.77 4.56 13.44 2.65-3.97 5.73-8.52 6.35-10.13.42-1.1.21-2.56-.56-3.68L224 55.63a8.65 8.65 0 0 1 6.48-2.84"/></defs><g><g transform="translate(-201 -44)"><use xlink:href="#jblta"/><use fill="#fff" fill-opacity="0" stroke="#000" stroke-miterlimit="50" stroke-width=".5" xlink:href="#jblta"/></g><g transform="translate(-201 -44)"><use xlink:href="#jbltb"/><use fill="#fff" fill-opacity="0" stroke="#000" stroke-miterlimit="50" stroke-width=".5" xlink:href="#jbltb"/></g><g transform="translate(-201 -44)"><use xlink:href="#jbltc"/><use fill="#fff" fill-opacity="0" stroke="#000" stroke-miterlimit="50" stroke-width=".5" xlink:href="#jbltc"/></g><g transform="translate(-201 -44)"><use xlink:href="#jbltd"/><use fill="#fff" fill-opacity="0" stroke="#000" stroke-miterlimit="50" stroke-width=".5" xlink:href="#jbltd"/></g><g transform="translate(-201 -44)"><use xlink:href="#jblte"/><use fill="#fff" fill-opacity="0" stroke="#000" stroke-miterlimit="50" stroke-width=".5" xlink:href="#jblte"/></g><g transform="translate(-201 -44)"><use xlink:href="#jbltf"/><use fill="#fff" fill-opacity="0" stroke="#000" stroke-miterlimit="50" stroke-width=".5" xlink:href="#jbltf"/></g><g transform="translate(-201 -44)"><use xlink:href="#jbltg"/></g></g></svg>